<?xml version="1.0" standalone="no"?>
<!DOCTYPE svg PUBLIC "-//W3C//DTD SVG 20010904//EN"
 "http://www.w3.org/TR/2001/REC-SVG-20010904/DTD/svg10.dtd">
<svg version="1.0" xmlns="http://www.w3.org/2000/svg"
 width="1497.000000pt" height="1497.000000pt" viewBox="0 0 1497.000000 1497.000000"
 preserveAspectRatio="xMidYMid meet">
<metadata>
Created by potrace 1.11, written by Peter Selinger 2001-2013
</metadata>
<g transform="translate(0.000000,1497.000000) scale(0.100000,-0.100000)"
fill="#000000" stroke="none">
<path d="M7535 13604 c-22 -36 -44 -73 -50 -82 -5 -10 -49 -80 -96 -157 -47
-77 -148 -241 -224 -365 -75 -124 -164 -267 -196 -318 -32 -51 -59 -95 -59
-98 0 -2 -17 -30 -37 -62 -63 -98 -75 -118 -282 -455 -110 -181 -201 -332
-201 -337 0 -5 -3 -10 -8 -12 -4 -1 -23 -30 -43 -63 -20 -33 -65 -107 -101
-165 -35 -58 -115 -188 -178 -290 -571 -932 -626 -1022 -665 -1083 -22 -34
-239 -389 -266 -435 -18 -30 -241 -394 -298 -485 -20 -32 -44 -71 -53 -87 -25
-42 -175 -286 -213 -345 -28 -44 -206 -336 -238 -390 -7 -11 -26 -42 -43 -70
-18 -27 -136 -221 -264 -430 -232 -380 -297 -485 -396 -645 -29 -47 -91 -148
-138 -225 -47 -77 -90 -145 -96 -152 -5 -7 -10 -14 -10 -17 0 -2 -46 -78 -101
-168 -56 -90 -109 -176 -119 -193 -9 -16 -138 -226 -285 -465 -147 -239 -275
-448 -285 -465 -9 -16 -94 -154 -187 -305 -93 -151 -190 -309 -215 -350 -25
-41 -105 -171 -177 -288 -72 -117 -131 -217 -131 -222 0 -4 -4 -10 -8 -12 -4
-1 -54 -79 -111 -173 -57 -93 -127 -207 -155 -253 -28 -46 -58 -95 -67 -110
-9 -15 -126 -205 -259 -422 -134 -217 -250 -407 -259 -422 -9 -15 -83 -136
-166 -270 -82 -134 -151 -249 -153 -255 -2 -7 -8 -13 -13 -13 -5 0 -9 -4 -9
-10 0 -5 -52 -94 -117 -197 -64 -104 -124 -201 -133 -218 -20 -33 -330 -540
-365 -595 -44 -70 -55 -89 -55 -98 0 -6 1061 -10 2572 -10 9256 -3 12336 -3
12361 -3 l28 1 -20 28 c-18 26 -193 316 -215 357 -16 28 -845 1414 -864 1445
-9 14 -22 34 -28 45 -15 28 -473 795 -493 825 -8 14 -21 34 -27 45 -6 11 -98
166 -206 345 -107 179 -258 431 -336 561 -77 130 -150 252 -161 270 -11 19
-28 48 -37 64 -9 17 -31 53 -49 80 -27 43 -57 93 -149 248 -15 26 -177 296
-223 372 -7 11 -15 27 -19 35 -4 8 -23 40 -42 70 -19 30 -43 69 -52 85 -9 17
-86 145 -170 285 -84 140 -158 264 -164 275 -6 11 -19 31 -28 45 -16 26 -519
866 -552 923 -10 17 -121 203 -246 412 -447 746 -563 940 -584 976 -12 20 -86
145 -166 278 -80 132 -152 253 -161 268 -9 16 -92 154 -184 308 -92 154 -176
294 -186 311 -9 18 -40 69 -68 114 -28 45 -51 84 -51 86 0 2 -23 41 -51 86
-28 44 -60 97 -71 117 -11 20 -88 148 -170 285 -83 137 -158 263 -168 280 -14
25 -317 533 -349 586 -25 41 -415 691 -734 1225 -197 330 -362 603 -366 607
-4 5 -25 -22 -46 -58z m455 -2100 c228 -382 416 -698 418 -702 2 -6 -46 -65
-132 -162 -12 -14 -62 -72 -111 -130 -50 -58 -92 -107 -95 -110 -3 -3 -30 -34
-60 -70 -30 -36 -67 -78 -81 -95 -80 -91 -131 -151 -258 -300 -52 -60 -97
-112 -100 -115 -3 -3 -31 -34 -61 -70 -30 -36 -65 -76 -76 -90 -21 -25 -177
-205 -409 -474 -66 -76 -136 -158 -155 -181 -42 -51 -452 -528 -460 -535 -3
-3 -34 -39 -69 -80 -81 -96 -160 -187 -186 -216 -11 -12 -39 -44 -61 -71 -23
-26 -52 -59 -63 -73 -12 -14 -39 -45 -60 -70 -79 -93 -494 -576 -520 -605 -14
-17 -51 -59 -81 -95 -30 -36 -58 -67 -61 -70 -3 -3 -48 -54 -100 -115 -103
-121 -94 -111 -240 -280 -57 -66 -129 -150 -159 -185 -30 -36 -59 -70 -65 -76
-11 -12 -26 -30 -120 -139 -33 -38 -64 -75 -70 -81 -22 -25 -110 -127 -270
-314 -92 -107 -191 -222 -220 -255 -60 -69 -111 -129 -175 -205 -25 -29 -49
-58 -55 -64 -51 -57 -603 -700 -670 -780 -22 -26 -49 -58 -61 -70 -11 -11 -45
-50 -75 -86 -30 -36 -61 -72 -69 -80 -9 -8 -36 -40 -60 -70 -25 -30 -52 -61
-60 -70 -8 -8 -78 -89 -155 -179 -225 -263 -227 -265 -117 -86 54 88 144 237
201 330 57 94 114 186 126 205 13 19 60 96 105 170 46 74 118 191 160 260 42
69 189 307 325 530 380 620 514 839 555 905 21 33 160 260 310 505 150 245
306 498 346 563 41 65 74 120 74 123 0 3 9 17 19 32 10 15 80 126 154 247 74
121 206 337 294 480 87 143 228 373 312 510 85 138 188 306 231 375 42 69 127
206 187 305 297 485 467 763 488 795 12 19 80 130 150 245 71 116 143 233 161
261 18 28 38 63 45 77 7 15 16 27 21 27 4 0 8 4 8 9 0 9 241 407 259 428 6 7
11 14 11 16 0 10 454 747 460 747 3 -1 192 -313 420 -696z m703 -1176 c30 -51
191 -320 357 -598 167 -278 311 -519 321 -536 9 -18 40 -69 68 -114 28 -45 51
-83 51 -85 0 -2 37 -63 81 -137 45 -73 93 -153 107 -178 13 -25 29 -51 35 -58
30 -37 96 -167 89 -174 -4 -4 -186 -134 -402 -287 -498 -352 -612 -434 -625
-444 -5 -4 -68 -49 -140 -99 -444 -312 -2079 -1471 -2085 -1477 -3 -4 -13 -10
-22 -16 -9 -5 -137 -95 -284 -200 -250 -178 -444 -315 -574 -406 -81 -57 -181
-129 -534 -379 -174 -124 -352 -250 -395 -280 -43 -30 -199 -140 -345 -245
-147 -104 -287 -203 -310 -220 -58 -40 -301 -211 -451 -319 -66 -47 -127 -90
-135 -96 -8 -5 -64 -45 -125 -88 -267 -189 -529 -375 -640 -453 -66 -46 -124
-87 -130 -92 -53 -42 -137 -96 -125 -81 18 23 109 131 130 154 8 9 35 40 60
70 25 29 50 58 55 64 6 6 67 76 135 156 69 80 137 159 151 175 14 17 69 80
121 140 136 159 357 416 382 445 43 50 332 386 352 410 12 14 41 48 65 76 49
56 97 112 250 289 56 66 108 125 113 131 6 7 20 22 30 35 29 35 259 303 266
309 3 3 43 50 90 105 47 55 87 102 90 105 3 3 84 97 180 210 96 113 177 207
180 210 4 3 145 167 315 365 170 198 340 396 378 440 39 44 91 104 116 134 25
29 60 70 77 90 36 41 224 259 294 341 26 30 94 109 151 176 57 66 124 145 149
174 25 29 50 58 56 64 5 6 106 124 224 261 118 138 217 252 220 255 5 5 95
109 146 170 59 68 220 256 229 266 5 6 21 24 35 40 159 186 276 321 284 330 6
6 31 35 56 65 79 93 604 704 610 709 3 3 41 47 84 98 43 50 80 92 82 92 1 0
27 -42 57 -92z m1407 -2353 c0 -3 20 -36 45 -75 25 -39 45 -72 45 -73 0 -3
139 -235 172 -287 26 -42 238 -402 238 -405 0 -2 -22 -14 -48 -28 -27 -14 -64
-34 -83 -44 -70 -40 -400 -221 -549 -301 -36 -19 -99 -54 -140 -77 -41 -23
-111 -61 -155 -85 -102 -55 -150 -81 -315 -172 -74 -41 -171 -94 -215 -118
-44 -23 -84 -46 -90 -50 -5 -4 -55 -31 -110 -60 -55 -29 -113 -60 -130 -70
-31 -18 -87 -49 -190 -105 -182 -99 -718 -392 -765 -419 -30 -17 -81 -44 -112
-61 -48 -25 -450 -244 -618 -337 -170 -94 -347 -191 -415 -228 -44 -23 -84
-46 -90 -50 -5 -4 -50 -29 -100 -55 -49 -26 -227 -123 -395 -215 -168 -92
-330 -181 -360 -197 -30 -17 -120 -66 -200 -110 -80 -44 -176 -97 -215 -118
-174 -94 -204 -111 -275 -150 -41 -23 -106 -59 -145 -80 -38 -21 -92 -50 -120
-65 -87 -48 -367 -201 -445 -243 -41 -22 -79 -43 -85 -47 -5 -4 -41 -24 -80
-44 -38 -21 -88 -47 -110 -60 -22 -12 -76 -42 -120 -65 -44 -24 -100 -55 -125
-69 -25 -14 -70 -39 -100 -55 -30 -16 -68 -37 -85 -47 -16 -9 -66 -37 -110
-60 -44 -24 -125 -68 -180 -98 -55 -30 -129 -71 -165 -90 -36 -19 -91 -50
-123 -68 -32 -19 -60 -34 -62 -34 -2 0 -34 -17 -72 -39 -97 -54 -146 -81 -248
-136 -49 -27 -121 -65 -158 -87 -38 -21 -70 -38 -71 -38 -2 0 -67 -36 -146
-80 -79 -44 -144 -79 -146 -78 -1 2 74 57 168 123 94 66 176 125 182 131 6 6
16 13 22 15 5 2 91 62 189 132 99 71 326 232 505 358 179 127 334 237 345 245
11 8 85 60 165 117 80 56 161 114 180 128 34 25 999 709 1043 739 12 8 170
120 352 249 181 129 359 255 395 280 36 25 250 176 475 336 558 396 668 473
734 520 32 22 92 65 135 95 195 139 324 231 428 304 62 44 131 92 153 108 22
16 240 171 485 344 245 173 461 326 480 340 19 14 150 106 290 205 140 99 264
187 275 195 47 34 537 382 843 598 l47 33 38 -59 c20 -32 37 -61 37 -63z
m1896 -3168 c6 -12 180 -305 387 -650 208 -346 377 -630 377 -632 0 -4 -43
-13 -100 -20 -25 -3 -56 -8 -70 -10 -14 -2 -50 -7 -80 -10 -30 -4 -66 -8 -80
-10 -38 -6 -100 -14 -149 -20 -23 -3 -55 -7 -70 -9 -14 -3 -50 -8 -80 -11 -30
-4 -62 -8 -72 -10 -10 -2 -44 -6 -76 -10 -32 -3 -85 -10 -118 -15 -33 -5 -80
-11 -105 -14 -122 -14 -353 -44 -400 -51 -14 -2 -50 -7 -80 -10 -30 -4 -66 -9
-80 -10 -14 -2 -52 -6 -85 -10 -33 -3 -67 -8 -75 -10 -8 -2 -44 -7 -80 -10
-36 -4 -74 -9 -85 -11 -20 -4 -69 -10 -155 -19 -25 -3 -54 -6 -65 -9 -11 -2
-51 -7 -90 -11 -38 -4 -77 -9 -86 -10 -9 -2 -59 -8 -110 -15 -107 -12 -130
-15 -237 -29 -80 -11 -146 -19 -220 -26 -23 -3 -55 -7 -70 -9 -15 -3 -52 -8
-82 -11 -30 -3 -66 -8 -80 -10 -14 -2 -47 -6 -75 -9 -27 -4 -86 -11 -130 -17
-44 -6 -96 -12 -115 -14 -64 -6 -145 -16 -160 -20 -8 -2 -44 -6 -80 -10 -36
-3 -76 -7 -90 -9 -28 -5 -92 -13 -160 -21 -51 -6 -356 -43 -410 -50 -19 -3
-55 -7 -80 -10 -54 -6 -281 -34 -330 -40 -19 -3 -55 -7 -80 -10 -25 -3 -62 -8
-82 -10 -21 -3 -57 -7 -80 -10 -24 -3 -59 -7 -78 -10 -19 -2 -60 -7 -90 -10
-30 -4 -66 -8 -80 -10 -23 -3 -92 -12 -165 -20 -110 -13 -143 -17 -165 -20
-14 -2 -50 -6 -80 -10 -56 -6 -108 -12 -170 -20 -29 -4 -343 -42 -497 -60
-103 -12 -140 -17 -165 -21 -15 -2 -47 -6 -72 -9 -24 -2 -63 -7 -87 -10 -24
-2 -84 -10 -134 -15 -140 -16 -178 -21 -205 -26 -14 -2 -54 -6 -90 -10 -36 -3
-73 -8 -84 -10 -10 -2 -44 -6 -75 -9 -31 -4 -67 -8 -81 -10 -14 -2 -53 -7 -88
-10 -35 -4 -72 -8 -83 -10 -11 -2 -47 -7 -80 -10 -33 -4 -68 -8 -77 -10 -9 -1
-51 -6 -92 -11 -41 -4 -77 -8 -80 -9 -3 -1 -39 -5 -80 -9 -41 -5 -83 -10 -92
-11 -9 -2 -43 -6 -75 -10 -32 -3 -69 -8 -83 -10 -14 -2 -54 -7 -90 -10 -36 -4
-72 -8 -80 -10 -9 -2 -46 -6 -82 -9 -37 -4 -75 -8 -85 -10 -10 -2 -47 -7 -83
-11 -36 -4 -72 -8 -80 -10 -8 -1 -49 -6 -90 -10 -41 -4 -82 -9 -91 -10 -9 -2
-40 -6 -70 -10 -30 -3 -70 -8 -89 -10 -19 -2 -60 -7 -90 -10 -30 -3 -66 -8
-80 -10 -14 -2 -50 -7 -80 -10 -30 -4 -68 -8 -85 -10 -16 -2 -57 -7 -90 -10
-33 -4 -68 -9 -78 -11 -10 -2 -46 -5 -80 -8 l-62 -5 65 19 c36 11 74 22 85 24
27 6 227 62 290 81 28 8 59 17 70 19 11 3 281 77 600 166 319 89 605 168 635
176 30 9 75 21 100 28 25 7 162 45 305 85 143 40 332 93 420 117 217 61 447
125 465 129 20 5 987 276 1220 342 47 13 108 30 135 38 28 8 100 28 160 45 61
17 117 33 125 35 8 1 202 56 430 120 228 65 429 121 445 125 17 5 111 31 210
60 99 28 203 58 230 65 112 31 197 55 335 95 204 58 378 107 496 140 55 15
116 33 135 39 35 11 272 80 299 86 16 4 572 164 810 234 303 89 579 171 650
194 94 31 93 31 106 4z m1318 -2204 c168 -281 306 -515 306 -520 0 -4 -1320
-7 -2932 -6 -1613 1 -3657 2 -4542 3 -885 0 -1607 2 -1605 4 2 2 32 7 66 10
72 7 119 13 218 26 39 5 95 12 125 15 30 4 66 8 80 10 14 2 54 7 90 10 36 4
72 8 80 10 8 2 44 6 80 9 36 4 76 9 90 11 14 2 50 7 80 10 30 3 89 10 130 15
41 5 98 12 125 15 28 3 66 8 85 11 19 2 58 7 85 9 28 3 57 7 65 10 8 2 47 7
85 10 39 3 77 8 85 10 8 2 46 6 83 10 37 3 76 8 85 10 9 1 44 6 77 9 33 3 76
9 95 11 51 7 119 16 165 20 22 3 56 7 75 9 19 3 60 8 90 11 30 4 66 8 80 10
14 2 50 6 80 10 59 6 196 23 245 30 17 2 57 7 90 10 33 4 71 8 85 10 14 2 48
7 75 10 28 3 66 8 85 11 19 3 53 7 75 9 22 2 58 6 80 9 22 3 65 7 95 11 30 3
66 7 80 10 14 2 50 7 80 10 30 3 71 8 90 10 19 3 54 7 78 10 23 3 60 7 82 10
22 3 58 7 80 10 22 3 59 7 83 10 23 3 58 7 77 10 19 2 60 7 90 10 30 4 66 8
80 10 14 2 50 7 80 10 30 3 66 8 80 10 14 2 50 6 80 10 30 3 108 13 172 21 65
8 138 17 163 19 25 3 58 7 73 9 25 4 57 8 172 22 25 3 57 7 73 10 15 2 51 7
80 9 28 3 88 10 132 15 80 11 119 16 198 25 23 3 58 8 77 10 19 3 55 7 80 10
25 3 97 12 160 20 63 8 135 17 160 20 25 3 61 7 80 10 32 4 56 7 163 20 84 11
116 15 192 24 44 6 103 13 130 16 28 4 61 8 75 10 14 2 48 7 75 10 28 3 64 8
80 10 17 2 71 9 120 15 50 6 101 13 115 15 14 2 50 7 80 10 30 3 66 8 80 10
14 2 45 7 70 10 107 14 121 16 240 30 30 3 82 10 115 15 33 5 86 12 118 15 32
4 68 8 80 11 12 2 49 7 82 10 33 4 63 8 66 10 3 2 35 6 70 9 35 3 75 8 89 10
35 7 125 19 210 30 25 3 72 10 105 15 33 5 85 12 115 15 30 4 57 9 59 11 10 9
37 -35 335 -533z"/>
</g>
</svg>
